<?xml version="1.0" encoding="UTF-8"?> <svg xmlns="http://www.w3.org/2000/svg" width="30" height="30" viewBox="0 0 30 30" fill="none"><path d="M8 10.875C8.25 10.625 8.625 10.375 9 10.375C9.375 10.375 9.75 10.5 10 10.875L15 15.875L20 10.875C20.125 10.75 20.25 10.625 20.5 10.5C20.75 10.375 20.875 10.375 21.125 10.375C21.375 10.375 21.5 10.375 21.75 10.5C21.875 10.625 22.125 10.625 22.25 10.875C22.375 11 22.5 11.125 22.625 11.375C22.5 11.625 22.5 11.75 22.5 12C22.5 12.25 22.5 12.375 22.375 12.625C22.25 12.75 22.125 13 22 13.125L16 19.125C15.75 19.375 15.375 19.625 15 19.625C14.625 19.625 14.25 19.5 14 19.125L8 13.125C7.625 12.75 7.5 12.375 7.5 12C7.5 11.625 7.625 11.25 8 10.875Z" fill="#667085"></path></svg> 